<svg width="161" height="36" viewBox="0 0 161 36" fill="none" xmlns="http://www.w3.org/2000/svg">
<g clip-path="url(#clip0_187_97)">
<path d="M41.1 11L38.7132 16H44.4867L42.1 11H41.1ZM42.1 11.5V5H41.1V11.5H42.1Z" fill="#0075FF"/>
<path d="M15.224 17.384C15.832 17.48 16.384 17.728 16.88 18.128C17.392 18.528 17.792 19.024 18.08 19.616C18.384 20.208 18.536 20.84 18.536 21.512C18.536 22.36 18.32 23.128 17.888 23.816C17.456 24.488 16.824 25.024 15.992 25.424C15.176 25.808 14.208 26 13.088 26H6.848V9.272H12.848C13.984 9.272 14.952 9.464 15.752 9.848C16.552 10.216 17.152 10.72 17.552 11.36C17.952 12 18.152 12.72 18.152 13.52C18.152 14.512 17.88 15.336 17.336 15.992C16.808 16.632 16.104 17.096 15.224 17.384ZM9.032 16.496H12.704C13.728 16.496 14.52 16.256 15.08 15.776C15.64 15.296 15.92 14.632 15.92 13.784C15.92 12.936 15.64 12.272 15.08 11.792C14.52 11.312 13.712 11.072 12.656 11.072H9.032V16.496ZM12.896 24.2C13.984 24.2 14.832 23.944 15.44 23.432C16.048 22.92 16.352 22.208 16.352 21.296C16.352 20.368 16.032 19.64 15.392 19.112C14.752 18.568 13.896 18.296 12.824 18.296H9.032V24.2H12.896Z" fill="#0075FF"/>
<line x1="21.9" y1="26" x2="21.9" y2="9" stroke="#0075FF" stroke-width="2.2"/>
<path d="M30.152 26.168C29.048 26.168 28.056 25.976 27.176 25.592C26.312 25.192 25.632 24.648 25.136 23.96C24.64 23.256 24.384 22.448 24.368 21.536H26.696C26.776 22.32 27.096 22.984 27.656 23.528C28.232 24.056 29.064 24.32 30.152 24.32C31.192 24.32 32.008 24.064 32.6 23.552C33.208 23.024 33.512 22.352 33.512 21.536C33.512 20.896 33.336 20.376 32.984 19.976C32.632 19.576 32.192 19.272 31.664 19.064C31.136 18.856 30.424 18.632 29.528 18.392C28.424 18.104 27.536 17.816 26.864 17.528C26.208 17.24 25.64 16.792 25.16 16.184C24.696 15.56 24.464 14.728 24.464 13.688C24.464 12.776 24.696 11.968 25.16 11.264C25.624 10.56 26.272 10.016 27.104 9.632C27.952 9.248 28.92 9.056 30.008 9.056C31.576 9.056 32.856 9.448 33.848 10.232C34.856 11.016 35.424 12.056 35.552 13.352H33.152C33.072 12.712 32.736 12.152 32.144 11.672C31.552 11.176 30.768 10.928 29.792 10.928C28.88 10.928 28.136 11.168 27.56 11.648C26.984 12.112 26.696 12.768 26.696 13.616C26.696 14.224 26.864 14.72 27.2 15.104C27.552 15.488 27.976 15.784 28.472 15.992C28.984 16.184 29.696 16.408 30.608 16.664C31.712 16.968 32.6 17.272 33.272 17.576C33.944 17.864 34.52 18.32 35 18.944C35.48 19.552 35.72 20.384 35.72 21.44C35.72 22.256 35.504 23.024 35.072 23.744C34.64 24.464 34 25.048 33.152 25.496C32.304 25.944 31.304 26.168 30.152 26.168Z" fill="#0075FF"/>
<path d="M1 5L21.5 1L42 5L21.5 9L1 5Z" fill="#0075FF" stroke="#0075FF"/>
<path d="M48.0083 18.416C48.0083 17.328 48.2536 16.352 48.7443 15.488C49.235 14.6133 49.9016 13.9307 50.7443 13.44C51.5976 12.9493 52.5416 12.704 53.5763 12.704C54.7923 12.704 55.8536 12.9973 56.7603 13.584C57.667 14.1707 58.3283 15.0027 58.7443 16.08H57.0003C56.691 15.408 56.243 14.8907 55.6563 14.528C55.0803 14.1653 54.387 13.984 53.5763 13.984C52.7976 13.984 52.099 14.1653 51.4803 14.528C50.8616 14.8907 50.3763 15.408 50.0243 16.08C49.6723 16.7413 49.4963 17.52 49.4963 18.416C49.4963 19.3013 49.6723 20.08 50.0243 20.752C50.3763 21.4133 50.8616 21.9253 51.4803 22.288C52.099 22.6507 52.7976 22.832 53.5763 22.832C54.387 22.832 55.0803 22.656 55.6563 22.304C56.243 21.9413 56.691 21.424 57.0003 20.752H58.7443C58.3283 21.8187 57.667 22.6453 56.7603 23.232C55.8536 23.808 54.7923 24.096 53.5763 24.096C52.5416 24.096 51.5976 23.856 50.7443 23.376C49.9016 22.8853 49.235 22.208 48.7443 21.344C48.2536 20.48 48.0083 19.504 48.0083 18.416Z" fill="#0075FF"/>
<path d="M69.2711 19.28C69.2711 19.5573 69.2551 19.8507 69.2231 20.16H62.2151C62.2684 21.024 62.5617 21.7013 63.0951 22.192C63.6391 22.672 64.2951 22.912 65.0631 22.912C65.6924 22.912 66.2151 22.768 66.6311 22.48C67.0577 22.1813 67.3564 21.7867 67.5271 21.296H69.0951C68.8604 22.1387 68.3911 22.8267 67.6871 23.36C66.9831 23.8827 66.1084 24.144 65.0631 24.144C64.2311 24.144 63.4844 23.9573 62.8231 23.584C62.1724 23.2107 61.6604 22.6827 61.2871 22C60.9137 21.3067 60.7271 20.5067 60.7271 19.6C60.7271 18.6933 60.9084 17.8987 61.2711 17.216C61.6337 16.5333 62.1404 16.0107 62.7911 15.648C63.4524 15.2747 64.2097 15.088 65.0631 15.088C65.8951 15.088 66.6311 15.2693 67.2711 15.632C67.9111 15.9947 68.4017 16.496 68.7431 17.136C69.0951 17.7653 69.2711 18.48 69.2711 19.28ZM67.7671 18.976C67.7671 18.4213 67.6444 17.9467 67.3991 17.552C67.1537 17.1467 66.8177 16.8427 66.3911 16.64C65.9751 16.4267 65.5111 16.32 64.9991 16.32C64.2631 16.32 63.6337 16.5547 63.1111 17.024C62.5991 17.4933 62.3057 18.144 62.2311 18.976H67.7671Z" fill="#0075FF"/>
<path d="M75.8868 15.072C76.9535 15.072 77.8175 15.3973 78.4788 16.048C79.1401 16.688 79.4708 17.616 79.4708 18.832V24H78.0308V19.04C78.0308 18.1653 77.8121 17.4987 77.3748 17.04C76.9375 16.5707 76.3401 16.336 75.5828 16.336C74.8148 16.336 74.2015 16.576 73.7428 17.056C73.2948 17.536 73.0708 18.2347 73.0708 19.152V24H71.6148V15.232H73.0708V16.48C73.3588 16.032 73.7481 15.6853 74.2388 15.44C74.7401 15.1947 75.2895 15.072 75.8868 15.072Z" fill="#0075FF"/>
<path d="M84.0939 16.432V21.6C84.0939 22.0267 84.1846 22.3307 84.3659 22.512C84.5473 22.6827 84.8619 22.768 85.3099 22.768H86.3819V24H85.0699C84.2593 24 83.6513 23.8133 83.2459 23.44C82.8406 23.0667 82.6379 22.4533 82.6379 21.6V16.432H81.5019V15.232H82.6379V13.024H84.0939V15.232H86.3819V16.432H84.0939Z" fill="#0075FF"/>
<path d="M89.7036 16.656C89.9596 16.1547 90.3223 15.7653 90.7916 15.488C91.2716 15.2107 91.853 15.072 92.5356 15.072V16.576H92.1516C90.5196 16.576 89.7036 17.4613 89.7036 19.232V24H88.2476V15.232H89.7036V16.656Z" fill="#0075FF"/>
<path d="M102.271 19.28C102.271 19.5573 102.255 19.8507 102.223 20.16H95.2151C95.2684 21.024 95.5617 21.7013 96.0951 22.192C96.6391 22.672 97.2951 22.912 98.0631 22.912C98.6924 22.912 99.2151 22.768 99.6311 22.48C100.058 22.1813 100.356 21.7867 100.527 21.296H102.095C101.86 22.1387 101.391 22.8267 100.687 23.36C99.9831 23.8827 99.1084 24.144 98.0631 24.144C97.2311 24.144 96.4844 23.9573 95.8231 23.584C95.1724 23.2107 94.6604 22.6827 94.2871 22C93.9137 21.3067 93.7271 20.5067 93.7271 19.6C93.7271 18.6933 93.9084 17.8987 94.2711 17.216C94.6337 16.5333 95.1404 16.0107 95.7911 15.648C96.4524 15.2747 97.2097 15.088 98.0631 15.088C98.8951 15.088 99.6311 15.2693 100.271 15.632C100.911 15.9947 101.402 16.496 101.743 17.136C102.095 17.7653 102.271 18.48 102.271 19.28ZM100.767 18.976C100.767 18.4213 100.644 17.9467 100.399 17.552C100.154 17.1467 99.8177 16.8427 99.3911 16.64C98.9751 16.4267 98.5111 16.32 97.9991 16.32C97.2631 16.32 96.6337 16.5547 96.1111 17.024C95.5991 17.4933 95.3057 18.144 95.2311 18.976H100.767Z" fill="#0075FF"/>
<path d="M108.048 12.848C109.264 12.848 110.314 13.0773 111.2 13.536C112.096 13.984 112.778 14.6293 113.248 15.472C113.728 16.3147 113.968 17.3067 113.968 18.448C113.968 19.5893 113.728 20.5813 113.248 21.424C112.778 22.256 112.096 22.896 111.2 23.344C110.314 23.7813 109.264 24 108.048 24H104.576V12.848H108.048ZM108.048 22.8C109.488 22.8 110.586 22.4213 111.344 21.664C112.101 20.896 112.48 19.824 112.48 18.448C112.48 17.0613 112.096 15.9787 111.328 15.2C110.57 14.4213 109.477 14.032 108.048 14.032H106.032V22.8H108.048Z" fill="#0075FF"/>
<path d="M150.782 19.584C150.782 18.688 150.963 17.904 151.326 17.232C151.688 16.5493 152.184 16.0213 152.814 15.648C153.454 15.2747 154.163 15.088 154.942 15.088C155.71 15.088 156.376 15.2533 156.942 15.584C157.507 15.9147 157.928 16.3307 158.206 16.832V15.232H159.678V24H158.206V22.368C157.918 22.88 157.486 23.3067 156.91 23.648C156.344 23.9787 155.683 24.144 154.926 24.144C154.147 24.144 153.443 23.952 152.814 23.568C152.184 23.184 151.688 22.6453 151.326 21.952C150.963 21.2587 150.782 20.4693 150.782 19.584ZM158.206 19.6C158.206 18.9387 158.072 18.3627 157.806 17.872C157.539 17.3813 157.176 17.008 156.718 16.752C156.27 16.4853 155.774 16.352 155.23 16.352C154.686 16.352 154.19 16.48 153.742 16.736C153.294 16.992 152.936 17.3653 152.67 17.856C152.403 18.3467 152.27 18.9227 152.27 19.584C152.27 20.256 152.403 20.8427 152.67 21.344C152.936 21.8347 153.294 22.2133 153.742 22.48C154.19 22.736 154.686 22.864 155.23 22.864C155.774 22.864 156.27 22.736 156.718 22.48C157.176 22.2133 157.539 21.8347 157.806 21.344C158.072 20.8427 158.206 20.2613 158.206 19.6Z" fill="#0075FF"/>
<path d="M115.782 19.584C115.782 18.688 115.963 17.904 116.326 17.232C116.688 16.5493 117.184 16.0213 117.814 15.648C118.454 15.2747 119.163 15.088 119.942 15.088C120.71 15.088 121.376 15.2533 121.942 15.584C122.507 15.9147 122.928 16.3307 123.206 16.832V15.232H124.678V24H123.206V22.368C122.918 22.88 122.486 23.3067 121.91 23.648C121.344 23.9787 120.683 24.144 119.926 24.144C119.147 24.144 118.443 23.952 117.814 23.568C117.184 23.184 116.688 22.6453 116.326 21.952C115.963 21.2587 115.782 20.4693 115.782 19.584ZM123.206 19.6C123.206 18.9387 123.072 18.3627 122.806 17.872C122.539 17.3813 122.176 17.008 121.718 16.752C121.27 16.4853 120.774 16.352 120.23 16.352C119.686 16.352 119.19 16.48 118.742 16.736C118.294 16.992 117.936 17.3653 117.67 17.856C117.403 18.3467 117.27 18.9227 117.27 19.584C117.27 20.256 117.403 20.8427 117.67 21.344C117.936 21.8347 118.294 22.2133 118.742 22.48C119.19 22.736 119.686 22.864 120.23 22.864C120.774 22.864 121.27 22.736 121.718 22.48C122.176 22.2133 122.539 21.8347 122.806 21.344C123.072 20.8427 123.206 20.2613 123.206 19.6Z" fill="#0075FF"/>
<path d="M132.511 24L129.071 20.128V24H127.615V12.16H129.071V19.12L132.447 15.232H134.479L130.351 19.6L134.495 24H132.511Z" fill="#0075FF"/>
<path d="M140.967 15.072C141.628 15.072 142.225 15.216 142.759 15.504C143.292 15.7813 143.708 16.2027 144.007 16.768C144.316 17.3333 144.471 18.0213 144.471 18.832V24H143.031V19.04C143.031 18.1653 142.812 17.4987 142.375 17.04C141.937 16.5707 141.34 16.336 140.583 16.336C139.815 16.336 139.201 16.576 138.743 17.056C138.295 17.536 138.071 18.2347 138.071 19.152V24H136.615V12.16H138.071V16.48C138.359 16.032 138.753 15.6853 139.255 15.44C139.767 15.1947 140.337 15.072 140.967 15.072Z" fill="#0075FF"/>
<path d="M148.719 12.16V24H147.263V12.16H148.719Z" fill="#0075FF"/>
</g>
<defs>
<clipPath id="clip0_187_97">
<rect width="161" height="36" fill="white"/>
</clipPath>
</defs>
</svg>
